HIERARCHY
ROOT Hips
{
	OFFSET -3.958830 18.904000 13.208200
	CHANNELS 6 Xposition Yposition Zposition Zrotation Yrotation Xrotation 
	JOINT LHipJoint
	{
		OFFSET 0.000000 0.000000 0.000000
		CHANNELS 3 Zrotation Yrotation Xrotation
		JOINT LeftUpLeg
		{
			OFFSET 1.800000 -1.400000 0.085000
			CHANNELS 3 Zrotation Yrotation Xrotation
			JOINT LeftLeg
			{
				OFFSET 2.215000 -6.000000 0.000000
				CHANNELS 3 Zrotation Yrotation Xrotation
				JOINT LeftFoot
				{
					OFFSET 2.500000 -6.900000 0.000000
					CHANNELS 3 Zrotation Yrotation Xrotation
					JOINT LeftToeBase
					{
						OFFSET 0.200000 -0.500000 1.950000
						CHANNELS 3 Zrotation Yrotation Xrotation
						End Site
						{
							OFFSET 0.000000 0.000000 0.000000
						}
					}
				}
			}
		}
	}
	JOINT RHipJoint
	{
		OFFSET 0.000000 0.000000 0.000000
		CHANNELS 3 Zrotation Yrotation Xrotation
		JOINT RightUpLeg
		{
			OFFSET -1.800000 -1.400000 0.085000
			CHANNELS 3 Zrotation Yrotation Xrotation
			JOINT RightLeg
			{
				OFFSET -2.215000 -6.000000 0.000000
				CHANNELS 3 Zrotation Yrotation Xrotation
				JOINT RightFoot
				{
					OFFSET -2.500000 -6.900000 0.000000
					CHANNELS 3 Zrotation Yrotation Xrotation
					JOINT RightToeBase
					{
						OFFSET -0.200000 -0.500000 1.950000
						CHANNELS 3 Zrotation Yrotation Xrotation
						End Site
						{
							OFFSET 0.000000 0.000000 0.000000
						}
					}
				}
			}
		}
	}
	JOINT LowerBack
	{
		OFFSET 0.000000 0.000000 0.000000
		CHANNELS 3 Zrotation Yrotation Xrotation
		JOINT Spine
		{
			OFFSET -0.087000 1.940000 -0.288900
			CHANNELS 3 Zrotation Yrotation Xrotation
			JOINT Spine1
			{
				OFFSET 0.000000 1.950000 0.060000
				CHANNELS 3 Zrotation Yrotation Xrotation
				JOINT Neck
				{
					OFFSET 0.000000 0.000000 0.000000
					CHANNELS 3 Zrotation Yrotation Xrotation
					JOINT Neck1
					{
						OFFSET 0.000000 1.600000 0.340000
						CHANNELS 3 Zrotation Yrotation Xrotation
						JOINT Head
						{
							OFFSET 0.000000 1.667000 -0.240000
							CHANNELS 3 Zrotation Yrotation Xrotation
							End Site
							{
								OFFSET 0.000000 0.000000 0.000000
							}
						}
					}
				}
				JOINT LeftShoulder
				{
					OFFSET 0.000000 0.000000 0.000000
					CHANNELS 3 Zrotation Yrotation Xrotation
					JOINT LeftArm
					{
						OFFSET 2.700000 1.550000 -0.730000
						CHANNELS 3 Zrotation Yrotation Xrotation
						JOINT LeftForeArm
						{
							OFFSET 5.450000 0.000000 0.000000
							CHANNELS 3 Zrotation Yrotation Xrotation
							JOINT LeftHand
							{
								OFFSET 3.450000 0.000000 0.000000
								CHANNELS 3 Zrotation Yrotation Xrotation
								JOINT LeftHandIndex1
								{
									OFFSET 0.750000 0.000000 0.000000
									CHANNELS 3 Zrotation Yrotation Xrotation
									End Site
									{
										OFFSET 0.000000 0.000000 0.000000
									}
								}
							}
						}
					}
				}
				JOINT RightShoulder
				{
					OFFSET 0.000000 0.000000 0.000000
					CHANNELS 3 Zrotation Yrotation Xrotation
					JOINT RightArm
					{
						OFFSET -2.700000 1.550000 -0.730000
						CHANNELS 3 Zrotation Yrotation Xrotation
						JOINT RightForeArm
						{
							OFFSET -5.450000 0.000000 0.000000
							CHANNELS 3 Zrotation Yrotation Xrotation
							JOINT RightHand
							{
								OFFSET -3.450000 0.000000 0.000000
								CHANNELS 3 Zrotation Yrotation Xrotation
								JOINT RightHandIndex1
								{
									OFFSET -0.750000 0.000000 0.000000
									CHANNELS 3 Zrotation Yrotation Xrotation
									End Site
									{
										OFFSET 0.000000 0.000000 0.000000
									}
								}
							}
						}
					}
				}
			}
		}
	}
}
MOTION
Frames: 9
Frame Time: 0.016667
-1.694510 16.190360 -0.730900 -0.710706 -0.842733 -0.456635 -14.938055 11.388646 0.560883 24.595176 2.782708 -11.804978 6.769438 4.927111 16.658807 -0.204332 4.780297 3.241933 0.315430 -0.241020 0.340130 19.007493 -8.947351 6.568297 -48.064900 3.942902 -12.309837 50.946450 -5.684796 -5.803846 -1.124014 -8.227683 1.665237 -0.134770 0.631890 0.433330 -4.901310 1.192587 -8.066041 7.772660 3.811665 6.180114 -1.118684 1.577146 16.986803 3.277574 0.251178 -12.320619 2.846088 6.184194 38.296738 -9.083090 8.376800 9.149450 3.318153 1.884002 6.069741 -29.533723 16.753366 -5.634634 -55.222635 -46.387263 20.555130 -3.554176 3.918777 0.197960 0.550070 -0.329950 0.350270 -7.973175 2.468694 8.398879 50.745323 28.529336 21.273552 -171.906340 48.401224 -179.987922 1.621036 -2.458335 -0.165980 0.032930 -0.118500 -0.145320 
-1.774460 16.168460 -0.727440 -0.553761 0.255049 -0.321852 -14.937594 11.263621 0.541389 24.695699 2.681697 -12.864036 6.828637 4.941644 17.129001 -0.218016 4.783992 3.238338 0.271950 -0.285280 0.259320 19.039379 -8.891370 6.649976 -48.532820 3.679323 -10.876347 52.887025 -5.245683 -7.211948 -1.142780 -8.314887 1.660860 -0.146350 0.676270 0.425180 -4.932827 1.306526 -8.076786 7.544289 4.045414 5.471870 -1.036085 1.717954 16.274100 3.295634 0.988294 -12.104935 4.303895 5.346535 38.667571 -8.156980 7.335700 11.314390 3.177758 2.407683 5.333286 -29.390147 14.387220 -4.785157 -54.525561 -43.775917 19.377814 -3.597650 3.903238 0.173870 0.577710 -0.381950 0.363810 -7.923388 1.408136 8.755339 52.164530 26.432576 21.478873 -174.099902 47.623856 176.003185 1.617393 -2.510230 -0.186060 0.019140 -0.092440 -0.128640 
-1.912080 16.145310 -0.696430 -0.706421 -0.289471 -0.754868 -14.875070 11.140351 0.541555 25.736892 3.099324 -12.074231 6.163574 5.332864 17.130762 -0.097604 4.898390 3.219643 0.219920 -0.331480 0.206430 19.108424 -8.959145 6.693877 -48.853254 4.062821 -10.151786 55.306009 -5.327518 -7.158282 -1.173955 -8.367366 1.691212 -0.204810 0.698040 0.411360 -5.113514 1.688561 -8.100949 8.711648 4.463681 4.887404 -1.973059 2.208762 15.304394 3.654686 1.309279 -11.961426 5.375379 4.436127 40.523427 -7.833840 6.430160 13.855310 2.233124 3.347286 5.031245 -31.203043 14.217300 -4.992381 -54.158547 -41.715092 18.347341 -3.597948 3.852414 0.132580 0.582130 -0.392130 0.379010 -7.800359 0.434511 8.957826 53.972327 24.235159 20.493555 -179.215020 48.679185 165.430858 1.670862 -2.487565 -0.162030 0.013610 -0.095020 -0.088760 
-2.058220 16.122010 -0.623370 -0.950014 0.010570 -1.740318 -14.861167 11.108884 0.525992 26.625992 3.454379 -10.643434 6.203030 5.386671 16.499247 -0.007727 4.928328 3.194094 0.266200 -0.295560 0.234960 19.121819 -8.940238 6.690119 -48.838042 4.468541 -7.578197 58.170564 -5.122732 -7.847709 -1.274293 -8.389028 1.687129 -0.225580 0.620900 0.423670 -5.139115 1.716296 -8.070590 9.321582 4.722763 3.949569 -1.621240 2.421249 14.884723 3.905226 1.074199 -12.011605 5.376076 3.692580 44.243670 -7.322540 5.039850 14.918780 0.371277 2.862456 5.439982 -33.888313 14.383514 -5.466803 -55.456381 -39.626105 17.573764 -3.545733 3.830956 0.154560 0.514190 -0.337080 0.386220 -6.345507 0.834201 8.458394 52.264328 22.679246 18.534950 175.489996 49.035431 154.777906 1.743859 -2.468468 -0.098000 -0.038330 -0.132690 -0.075310 
-2.202850 16.105810 -0.572820 -1.030740 0.505500 -2.690412 -14.868654 11.185213 0.503021 26.893459 3.662914 -10.051916 6.881964 5.301386 16.737067 0.027407 4.943418 3.178533 0.284750 -0.288890 0.248720 19.095402 -8.989480 6.621474 -48.549435 4.612839 -5.822320 60.370910 -5.546062 -7.554209 -1.352991 -8.406110 1.697127 -0.250080 0.575170 0.417680 -5.077881 1.646198 -8.027937 9.331567 4.760078 3.474536 -1.426143 2.540226 14.588054 4.251100 1.011729 -12.360834 5.714052 3.092473 47.853402 -6.796170 4.015690 15.565480 -1.026234 2.456146 5.862095 -37.490248 14.718506 -6.460827 -55.897706 -39.522981 17.400493 -3.505114 3.773542 0.205520 0.458940 -0.290130 0.390770 -5.569246 1.145981 8.418835 51.305249 20.767439 16.096276 171.116185 49.769344 145.856417 1.802450 -2.403793 -0.075940 -0.039500 -0.144890 -0.074640 
-2.350170 16.076590 -0.547050 -1.514703 1.461900 -3.031126 -14.854736 11.213280 0.556225 27.422499 3.607218 -10.852026 7.463640 5.259292 17.237253 0.063257 4.947983 3.146577 0.305650 -0.259930 0.259800 19.090654 -9.063209 6.457277 -47.542540 4.282051 -5.527519 61.931382 -6.638186 -6.291621 -1.389618 -8.452083 1.690814 -0.252950 0.541470 0.411310 -5.092488 1.612304 -7.977875 9.830780 4.471266 2.817080 -1.937519 2.304633 14.360099 4.584116 1.341278 -12.318964 6.474426 2.606742 49.522195 -6.299180 3.430210 16.250550 -1.811767 2.442027 5.944441 -40.273067 13.887074 -6.841482 -55.794811 -39.024994 17.080328 -3.504466 3.763410 0.194550 0.436650 -0.276210 0.389700 -5.516535 0.567056 8.216913 51.511673 19.882257 15.364753 168.460064 50.200202 140.895145 1.829794 -2.416520 -0.042940 -0.062850 -0.164210 -0.066840 
-2.490160 16.061360 -0.512040 -1.824083 1.367420 -3.995875 -14.843617 11.312667 0.566373 27.811278 3.748447 -10.515605 8.174974 5.223749 18.011493 0.077616 5.003802 3.088303 0.379380 -0.179820 0.323800 19.063197 -9.207510 6.292537 -46.255299 4.278575 -5.339147 62.726753 -7.888004 -4.526095 -1.463468 -8.509795 1.646470 -0.225220 0.463360 0.430090 -5.075435 1.638865 -7.911805 10.229025 4.488452 2.876299 -2.241204 2.364151 14.358891 5.097833 1.625827 -12.291240 7.400504 2.088183 51.406933 -6.182190 3.226950 14.964300 -3.062025 2.254596 5.835076 -42.221011 13.151918 -7.258804 -54.519336 -38.942993 16.475875 -3.475293 3.748987 0.233220 0.383760 -0.208580 0.387430 -5.229857 0.424326 8.133898 51.497996 19.448224 14.449134 166.601755 50.886041 137.511351 1.846023 -2.402889 0.000210 -0.086930 -0.199250 -0.076820 
-2.629980 16.055870 -0.480030 -2.362058 2.080402 -4.822461 -14.843488 11.464595 0.644864 28.181878 3.635346 -10.811051 9.051833 5.090268 18.580983 0.012726 5.106421 3.035763 0.335150 -0.231520 0.291350 19.015139 -9.342726 6.043280 -44.919540 3.854978 -5.547685 63.775947 -9.951327 -1.979790 -1.486482 -8.624710 1.621875 -0.232700 0.477120 0.397020 -5.014801 1.454701 -7.874847 10.581138 3.944149 3.014378 -2.604918 1.935014 14.034125 5.251476 1.561898 -12.286134 7.402871 1.874785 53.559049 -6.135320 2.749480 14.872490 -3.745683 1.955957 5.811586 -44.119400 12.508545 -7.616272 -52.637142 -38.495029 15.447433 -3.524334 3.629645 0.284430 0.380080 -0.223410 0.358260 -4.917135 0.475249 7.934738 52.147039 18.941965 13.649801 162.532577 51.204323 129.866214 1.842676 -2.320072 -0.053530 -0.034510 -0.141670 -0.104390 
-2.786990 16.050870 -0.440860 -2.741939 2.062749 -5.573994 -14.837313 11.649329 0.702671 28.468440 3.656798 -10.712463 9.760429 5.070171 19.572376 0.073744 5.217088 3.001216 0.341350 -0.238920 0.287710 18.962702 -9.577879 5.736653 -43.328794 3.573394 -6.631384 63.567846 -12.767620 1.869906 -1.524570 -8.806334 1.567953 -0.255170 0.483750 0.405110 -4.956936 1.392159 -7.777260 10.316339 3.733065 2.882832 -2.508314 1.696270 13.675534 4.953206 1.600415 -12.417354 7.816453 1.562964 56.121507 -4.933060 1.720870 16.405810 -3.854565 1.582595 6.120820 -45.912416 12.264588 -8.097565 -50.629058 -38.231917 14.512381 -3.516375 3.618959 0.282860 0.367270 -0.216030 0.373920 -4.271487 0.682337 7.609441 53.434656 18.923010 13.420143 157.397185 51.669446 120.853241 1.897302 -2.305068 -0.031630 -0.042370 -0.151980 -0.085100 
